<svg width="800" height="400" viewBox="0 0 800 400" xmlns="http://www.w3.org/2000/svg">
  <!-- Background -->
  <rect width="800" height="400" fill="#0f172a"/>
  
  <!-- Title -->
  <text x="400" y="35" font-family="Arial, sans-serif" font-size="28" fill="#FF6B2C" text-anchor="middle" font-weight="bold">LA FAMILIA MATCH</text>
  
  <!-- Don Match -->
  <g transform="translate(50, 50)">
    <ellipse cx="75" cy="60" rx="30" ry="33" fill="#C4A882"/>
    <path d="M45 50 Q45 25 75 22 Q105 25 105 50 L105 45 Q105 30 75 27 Q45 30 45 45 Z" fill="#1a1a1a"/>
    <path d="M48 47 Q48 40 55 37" fill="none" stroke="#666" stroke-width="3"/>
    <path d="M102 47 Q102 40 95 37" fill="none" stroke="#666" stroke-width="3"/>
    <ellipse cx="65" cy="57" rx="5" ry="4" fill="#3d2914"/>
    <ellipse cx="85" cy="57" rx="5" ry="4" fill="#3d2914"/>
    <path d="M60 72 Q75 82 90 72" fill="none" stroke="#3d2914" stroke-width="2"/>
    <rect x="45" y="95" width="60" height="80" rx="8" fill="#0f172a"/>
    <circle cx="55" cy="110" r="6" fill="#FF6B2C"/>
    <text x="75" y="195" font-family="Arial" font-size="12" fill="#FF6B2C" text-anchor="middle" font-weight="bold">DON MATCH</text>
    <text x="75" y="208" font-family="Arial" font-size="10" fill="#e2e8f0" text-anchor="middle">45 años</text>
  </g>
  
  <!-- Car-mela -->
  <g transform="translate(220, 50)">
    <ellipse cx="75" cy="60" rx="28" ry="32" fill="#C4A882"/>
    <path d="M47 48 Q47 22 75 19 Q103 22 103 48 L103 90 Q103 95 100 97 L100 75 Q100 55 75 50 Q50 55 50 75 L50 97 Q47 95 47 90 Z" fill="#5D4037"/>
    <path d="M47 85 Q42 92 38 100" fill="none" stroke="#5D4037" stroke-width="6" stroke-linecap="round"/>
    <path d="M103 85 Q108 92 112 100" fill="none" stroke="#5D4037" stroke-width="6" stroke-linecap="round"/>
    <ellipse cx="65" cy="57" rx="5" ry="4" fill="#8B7355"/>
    <ellipse cx="85" cy="57" rx="5" ry="4" fill="#8B7355"/>
    <path d="M60 72 Q75 82 90 72" fill="none" stroke="#C4A882" stroke-width="2"/>
    <rect x="48" y="95" width="54" height="75" rx="6" fill="#0f172a"/>
    <circle cx="56" cy="108" r="5" fill="#FF6B2C"/>
    <text x="75" y="185" font-family="Arial" font-size="12" fill="#FF6B2C" text-anchor="middle" font-weight="bold">CAR-MELA</text>
    <text x="75" y="198" font-family="Arial" font-size="10" fill="#e2e8f0" text-anchor="middle">42 años</text>
  </g>
  
  <!-- Matchy -->
  <g transform="translate(400, 50)">
    <ellipse cx="75" cy="60" rx="26" ry="30" fill="#C4A882"/>
    <path d="M49 46 Q49 18 75 15 Q101 18 101 46 L101 100 Q101 105 98 107 L98 70 Q98 50 75 45 Q52 50 52 70 L52 107 Q49 105 49 100 Z" fill="#1a1a1a"/>
    <path d="M55 30 L57 22 L59 30" fill="#8B5CF6"/>
    <ellipse cx="65" cy="57" rx="6" ry="5" fill="#3d2914"/>
    <ellipse cx="85" cy="57" rx="6" ry="5" fill="#3d2914"/>
    <path d="M63 55 L65 53" fill="none" stroke="#1a1a1a" stroke-width="1.5"/>
    <path d="M87 55 L85 53" fill="none" stroke="#1a1a1a" stroke-width="1.5"/>
    <path d="M60 72 Q75 82 90 72" fill="none" stroke="#C4A882" stroke-width="2"/>
    <rect x="45" y="95" width="60" height="70" rx="8" fill="#0f172a"/>
    <circle cx="55" cy="108" r="5" fill="#FF6B2C"/>
    <text x="75" y="180" font-family="Arial" font-size="12" fill="#8B5CF6" text-anchor="middle" font-weight="bold">MATCHY</text>
    <text x="75" y="193" font-family="Arial" font-size="10" fill="#e2e8f0" text-anchor="middle">20 años</text>
  </g>
  
  <!-- Car-litos -->
  <g transform="translate(580, 50)">
    <ellipse cx="75" cy="60" rx="27" ry="31" fill="#C4A882"/>
    <path d="M48 47 Q48 20 75 17 Q102 20 102 47 L102 42 Q102 25 75 22 Q48 25 48 42 Z" fill="#1a1a1a"/>
    <path d="M55 22 L57 15 L59 22" fill="#1a1a1a"/>
    <path d="M65 20 L67 12 L69 20" fill="#1a1a1a"/>
    <path d="M75 18 L77 10 L79 18" fill="#1a1a1a"/>
    <path d="M85 20 L87 12 L89 20" fill="#1a1a1a"/>
    <path d="M95 22 L97 15 L99 22" fill="#1a1a1a"/>
    <path d="M85 20 L87 12 L89 20" fill="#FF6B2C"/>
    <ellipse cx="65" cy="57" rx="5" ry="4" fill="#3d2914"/>
    <ellipse cx="85" cy="57" rx="5" ry="4" fill="#3d2914"/>
    <path d="M60 72 Q75 85 90 72" fill="none" stroke="#C4A882" stroke-width="2"/>
    <rect x="45" y="95" width="60" height="75" rx="8" fill="#0f172a"/>
    <circle cx="55" cy="108" r="5" fill="#FF6B2C"/>
    <text x="75" y="185" font-family="Arial" font-size="11" fill="#EF4444" text-anchor="middle" font-weight="bold">CAR-LITOS</text>
    <text x="75" y="198" font-family="Arial" font-size="10" fill="#e2e8f0" text-anchor="middle">18 años</text>
  </g>
  
  <!-- Footer -->
  <text x="400" y="300" font-family="Arial" font-size="14" fill="#e2e8f0" text-anchor="middle">Todos usan la chaqueta azul CarMatch con logo naranja</text>
  <text x="400" y="320" font-family="Arial" font-size="12" fill="#FF6B2C" text-anchor="middle">#FamiliaMatch #CarMatch</text>
</svg>